<?xml version="1.0" encoding="UTF-8"?>
<svg width="1500px" height="1500px" viewBox="0 0 1500 1500" version="1.1" xmlns="http://www.w3.org/2000/svg" xmlns:xlink="http://www.w3.org/1999/xlink">
    <!-- Generator: Sketch 51.2 (57519) - http://www.bohemiancoding.com/sketch -->
    <title>RG-Icon</title>
    <desc>Created with Sketch.</desc>
    <defs></defs>
    <g id="RG-Icon" stroke="none" stroke-width="1" fill="none" fill-rule="evenodd">
        <path d="M184.528597,548.131475 L184.528597,649.105995 C541.224047,649.035332 744.94457,649.035332 795.690167,649.105995 C872.545128,649 984.537455,574.974961 984.884531,448.219844 C985.231608,321.464727 871.377392,249.459473 785.06127,249.459473 C698.745148,249.459473 584.706564,312.122843 584.706564,449.282734 C626.690707,449.282734 658.265655,449.282734 685.14964,449.282734 C687.459044,403.790083 717.2363,348.308213 785.06127,348.308213 C852.88624,348.308213 880.719277,413.131967 881.784232,448.219844 C882.849187,483.307721 872.545128,528.153918 795.690167,548.131475 C738.294124,548.131475 534.573601,548.131475 184.528597,548.131475 Z" id="Path" fill="#0094D9"></path>
        <path d="M384.931198,948.829276 C829.713303,948.829276 1063.91259,948.829276 1087.52905,948.829276 C1132.94857,948.829276 1235.04565,992.585167 1232.96204,1097.18258 C1230.87842,1201.78 1135.87214,1249.28639 1087.52905,1248.86967 C1039.18595,1248.45295 933.338365,1214.6984 933.338365,1099.47456 C965.842741,1099.05874 999.458378,1098.85083 1034.18528,1098.85083 C1035.85217,1131.3543 1051.96545,1147.74495 1082.52512,1148.02276 C1113.08479,1148.30058 1129.89261,1131.90993 1132.94857,1098.85083 C1130.44824,1066.06774 1113.64042,1049.39837 1082.52512,1048.84274 C1051.40982,1048.28711 818.878511,1048.28711 384.931198,1048.84274 L384.931198,948.829276 Z" id="Path-2" fill="#0094D9"></path>
        <path d="M85.4327131,749.235443 C800.716123,749.235443 1183.23855,749.235443 1233,749.235443 C1269.57331,749.235443 1332.95454,721.698073 1332.95454,649 C1332.95454,576.301927 1270.5403,549.950423 1233,549.675928 C1195.4597,549.401433 1133.97286,576.852689 1133.14938,649.455686 C1102.68045,649.455686 1057.11518,649.455686 1033.23326,649.455686 C1036.84684,557.508431 1103.68922,447.541946 1233,450.129393 C1362.31078,452.71684 1433.15743,562.388989 1432.29495,649 C1431.43247,735.611011 1365.76071,849.027424 1233,849.458666 C1144.49286,849.74616 761.97043,849.602413 85.4327131,849.027424 L85.4327131,749.235443 Z" id="Path-3" fill="#0094D9"></path>
    </g>
</svg>